<svg width="8" height="8" viewBox="0 0 8 8" fill="none" xmlns="http://www.w3.org/2000/svg">
<g id="chevron-down">
<path id="Vector" fill-rule="evenodd" clip-rule="evenodd" d="M0.822989 2.32302C0.846212 2.29974 0.8738 2.28127 0.904172 2.26866C0.934545 2.25606 0.967106 2.24957 0.999989 2.24957C1.03287 2.24957 1.06543 2.25606 1.09581 2.26866C1.12618 2.28127 1.15377 2.29974 1.17699 2.32302L3.99999 5.14652L6.82299 2.32302C6.84623 2.29978 6.87383 2.28134 6.9042 2.26876C6.93457 2.25618 6.96712 2.2497 6.99999 2.2497C7.03286 2.2497 7.06541 2.25618 7.09578 2.26876C7.12615 2.28134 7.15375 2.29978 7.17699 2.32302C7.20023 2.34626 7.21867 2.37386 7.23125 2.40423C7.24383 2.4346 7.2503 2.46715 7.2503 2.50002C7.2503 2.53289 7.24383 2.56544 7.23125 2.59581C7.21867 2.62618 7.20023 2.65378 7.17699 2.67702L4.17699 5.67702C4.15377 5.7003 4.12618 5.71877 4.09581 5.73138C4.06543 5.74398 4.03287 5.75047 3.99999 5.75047C3.96711 5.75047 3.93454 5.74398 3.90417 5.73138C3.8738 5.71877 3.84621 5.7003 3.82299 5.67702L0.822989 2.67702C0.799708 2.6538 0.781236 2.62621 0.768633 2.59584C0.75603 2.56546 0.749542 2.5329 0.749542 2.50002C0.749542 2.46714 0.75603 2.43458 0.768633 2.4042C0.781236 2.37383 0.799708 2.34624 0.822989 2.32302V2.32302Z" fill="white" stroke="white" stroke-width="0.7"/>
</g>
</svg>
